<svg xmlns="http://www.w3.org/2000/svg" xmlns:xlink="http://www.w3.org/1999/xlink" version="1.1" id="Layer_1" x="0px" y="0px" viewBox="0 0 98.3 157.4" style="enable-background:new 0 0 98.3 157.4;" xml:space="preserve">
<style type="text/css">
	.st0{fill:#FFFFFF;}
</style>
<path class="st0" d="M98.3,99.4v43.4c0,0.6-0.5,1.1-1.1,1.1H73.5v3.7c0,0.3-0.2,0.7-0.4,0.9c-0.3,0.2-7.4,5.7-21.6,5.7h-1.4  c-0.6,0-1.1-0.5-1.1-1.2c0,0,0,0,0,0c0-0.6,0.5-1.1,1.2-1.1c12.3,0.3,19.4-3.8,21.1-4.9v-4.2c0-0.6,0.5-1.1,1.1-1.1H96V100  L80.8,87.3v28.1c0,0.6-0.5,1.1-1.1,1.1c-0.1,0-0.1,0-0.2,0c-0.1,0-8.2-1.2-8.2-12.2V77.1c0-52-19.2-73.8-21.6-74.9h-1.5  C45.7,3.3,26.3,25,26.3,77v6.7c0,0.3-0.1,0.6-0.4,0.8L2.3,107.4v24.9l22.6,2.9l0,0H25h0.2l0.2,0.1l0.2,0.1l0,0l0.1,0.1  c0.1,0.1,0.1,0.2,0.2,0.3c0,0,0,0.1,0,0.1c0,0.1,0,0.2,0,0.3V155l3.5-0.1l11.6-8.7V99l-2.4-0.7l-8.9,22c-0.2,0.6-0.8,0.9-1.4,0.7  c-0.6-0.2-0.9-0.8-0.7-1.4c0-0.1,0-0.1,0.1-0.2l9.3-23c0.2-0.5,0.8-0.8,1.3-0.7l4.2,1.2c0.5,0.1,0.8,0.6,0.8,1.1v48.7  c0,0.4-0.2,0.7-0.5,0.9L30.6,157c-0.2,0.1-0.4,0.2-0.6,0.2l-5,0.1l0,0c-0.6,0-1.1-0.5-1.1-1.1l0,0v-19L1,134.3c-0.6-0.1-1-0.5-1-1.1  v-26.3c0-0.3,0.1-0.6,0.3-0.8L24,83.3V77C24,23.1,44.8,0,48,0h1.7C53,0,73.5,23.2,73.5,77.1v27.2c0,6.6,3.2,8.8,5,9.6V85  c0-0.6,0.5-1.1,1.1-1.1c0.3,0,0.5,0.1,0.7,0.3l17.5,14.5C98.1,98.8,98.3,99.1,98.3,99.4z"/>
</svg>
